<svg version="1.1" id="Layer_1" xmlns="http://www.w3.org/2000/svg" xmlns:xlink="http://www.w3.org/1999/xlink" x="0px" y="0px"
	 width="100%" viewBox="0 0 1920 1440" enable-background="new 0 0 1920 1440" xml:space="preserve">
<path fill="#FAF9FF" opacity="1.000000" stroke="none" 
	d="
M1050.000000,1441.000000 
	C700.000122,1441.000000 350.500214,1441.000000 1.000234,1441.000000 
	C1.000156,961.000244 1.000156,481.000488 1.000078,1.000556 
	C640.999573,1.000371 1280.999146,1.000371 1920.999023,1.000185 
	C1920.999268,480.999420 1920.999268,960.998840 1920.999634,1440.999146 
	C1630.833374,1441.000000 1340.666626,1441.000000 1050.000000,1441.000000 
M827.554321,1077.550293 
	C828.850342,1081.130127 829.976990,1084.782471 831.475037,1088.275757 
	C835.554688,1097.789673 842.635559,1103.386353 853.170593,1103.867432 
	C861.274902,1104.237793 869.444885,1104.923706 877.495422,1104.301514 
	C889.038025,1103.409058 900.498413,1101.453247 912.513794,1100.534790 
	C927.646484,1102.012939 942.755798,1104.297729 957.918579,1104.737549 
	C972.464355,1105.159424 987.172729,1104.550781 1001.616272,1102.800171 
	C1020.945923,1100.457031 1040.385498,1097.775391 1059.251343,1093.109497 
	C1099.262085,1083.213989 1137.008789,1067.617798 1171.904053,1045.227417 
	C1191.158081,1032.873047 1209.146729,1019.186157 1224.863892,1002.577271 
	C1234.055420,992.864197 1241.671021,982.118347 1246.291870,969.395508 
	C1249.224609,961.320801 1247.223999,950.210327 1242.156616,946.021484 
	C1241.504150,936.019958 1240.851685,926.018372 1240.886230,915.928040 
	C1249.370605,909.892944 1258.712158,904.749695 1266.138184,897.613281 
	C1277.215698,886.967773 1287.897217,875.623291 1297.017456,863.296509 
	C1310.232300,845.435608 1319.796265,825.363342 1326.345215,804.055664 
	C1329.062012,795.216309 1331.469727,786.179565 1332.848877,777.055847 
	C1334.822388,763.999146 1336.258057,750.807068 1336.917603,737.622498 
	C1337.468140,726.616943 1336.909546,715.517944 1336.219116,704.499390 
	C1335.589722,694.451233 1334.123047,684.455505 1333.944702,674.252808 
	C1365.921997,674.228638 1397.907593,673.767578 1429.873169,674.369019 
	C1445.290161,674.659119 1453.135986,663.433167 1453.047974,651.201660 
	C1452.659546,597.241699 1452.881470,543.277283 1452.869873,489.314514 
	C1452.869507,487.487396 1452.735962,485.660278 1452.829224,482.927277 
	C1452.845825,476.268555 1452.901245,469.609619 1452.870850,462.951111 
	C1452.812012,450.024658 1444.585693,441.705750 1431.617188,441.698364 
	C1362.194580,441.658783 1292.771973,441.660126 1223.349365,441.693634 
	C1210.708862,441.699738 1202.409790,449.917755 1202.100220,462.521149 
	C1201.973633,467.674500 1201.945557,472.830292 1201.140259,477.970917 
	C1200.648804,477.897308 1200.083862,477.956482 1199.676514,477.731018 
	C1182.019531,467.960297 1163.249512,461.810791 1143.245361,458.707367 
	C1124.762207,455.839905 1106.635620,456.971100 1088.531982,460.718079 
	C1071.126831,464.320465 1055.378052,472.195862 1039.182617,479.753265 
	C1037.003174,477.423859 1034.823608,475.094482 1032.827759,472.008514 
	C1034.383667,460.993988 1036.997559,450.008362 1037.299316,438.959564 
	C1038.241455,404.458313 1020.500549,375.214508 990.145691,365.822052 
	C960.116150,356.530182 930.696960,361.455933 904.522156,379.632080 
	C899.491333,383.125580 896.582703,389.631683 892.544189,394.626038 
	C891.436829,395.995483 889.944092,397.538452 888.353882,397.955200 
	C875.999451,401.192993 868.089661,408.894379 865.985657,421.417480 
	C864.873474,428.037109 864.454224,435.209015 865.788513,441.707367 
	C868.118347,453.054932 872.043701,464.074951 874.873291,475.735901 
	C874.429871,476.226013 874.057922,476.816437 873.532227,477.191193 
	C865.671265,482.795410 862.893127,495.909454 866.543091,505.791077 
	C870.330505,516.044678 878.728394,520.025757 889.308716,521.572876 
	C892.911011,529.333740 896.513306,537.094604 899.608948,545.454285 
	C893.937500,544.749329 888.153931,544.530579 882.614258,543.253845 
	C860.591797,538.178101 842.420166,525.502319 824.385498,512.778748 
	C805.045959,499.134521 785.974304,485.110046 766.825623,471.196594 
	C765.702087,470.380249 764.935181,469.073212 764.273682,467.339172 
	C765.458618,463.089569 767.497375,458.873383 767.665344,454.583923 
	C768.133972,442.617584 767.851562,430.620819 767.820129,418.636200 
	C767.785889,405.588043 759.712646,397.388885 746.685425,397.368988 
	C712.895264,397.317352 679.104919,397.324097 645.314758,397.373566 
	C631.258728,397.394135 623.410400,405.320190 623.339600,419.449585 
	C623.284546,430.435272 623.503906,441.424957 623.280334,452.406342 
	C623.104980,461.014496 625.723083,468.078674 632.880737,473.737732 
	C626.123901,480.783295 619.029602,487.538483 612.671936,494.927460 
	C591.430298,519.614868 577.301453,548.246765 566.209351,578.948059 
	C550.908630,574.887512 535.640076,574.987183 520.338928,579.065674 
	C517.355225,579.860962 515.435059,580.999512 516.112000,584.397400 
	C517.976685,593.757446 514.693970,600.011780 505.541779,603.487915 
	C503.160980,604.392151 501.622620,605.138184 499.304230,603.631287 
	C495.575012,601.207397 491.612610,599.142151 487.687225,596.890137 
	C474.487854,608.636230 465.976685,622.763977 461.237396,639.365051 
	C460.096436,643.361633 460.825378,645.591980 464.630737,647.076172 
	C472.004547,649.951904 477.087341,654.322510 474.710632,663.312866 
	C474.549652,663.921814 475.021790,664.743958 474.780487,665.277466 
	C473.990448,667.024414 473.420685,669.265198 472.017365,670.264160 
	C468.277832,672.926331 464.147522,675.039551 460.235443,677.334106 
	C463.626495,693.744019 470.813599,707.566956 481.956268,719.335999 
	C487.392273,725.077515 487.402008,725.066772 494.060150,721.236206 
	C496.078369,720.075012 498.020325,718.728271 500.152618,717.839172 
	C501.334656,717.346375 503.085754,717.112366 504.158234,717.632263 
	C516.018921,723.382568 516.189453,723.431641 515.986511,736.820251 
	C515.927246,740.728821 517.413574,742.266479 520.826111,742.748413 
	C528.877319,743.885315 536.933044,744.990479 544.988708,747.015991 
	C545.046753,765.999390 548.731995,784.565186 552.345032,803.033447 
	C558.173706,832.827026 567.011047,861.847839 578.116577,890.113647 
	C585.888367,909.894409 595.942993,928.452087 608.864563,945.449890 
	C617.322205,956.575745 627.498047,965.543091 639.406433,972.751709 
	C650.839966,979.672852 663.577637,981.812195 676.497620,982.798157 
	C681.590393,983.186829 686.832947,981.612427 692.612793,981.251587 
	C695.147522,984.716553 697.641357,988.212402 700.223755,991.641418 
	C714.808167,1011.006531 733.247375,1026.343872 753.375854,1039.271729 
	C771.228394,1050.737915 790.297363,1060.345215 809.065002,1070.330078 
	C814.668030,1073.311157 821.065063,1074.799683 827.554321,1077.550293 
z"/>
<path fill="#E9E8F6" opacity="1.000000" stroke="none" 
	d="
M764.002258,467.994537 
	C764.935181,469.073212 765.702087,470.380249 766.825623,471.196594 
	C785.974304,485.110046 805.045959,499.134521 824.385498,512.778748 
	C842.420166,525.502319 860.591797,538.178101 882.614258,543.253845 
	C888.153931,544.530579 893.937500,544.749329 900.143250,545.339233 
	C905.758972,550.815674 910.840332,556.407104 915.900024,562.439941 
	C915.632751,567.235291 915.387207,571.589172 915.083069,576.305664 
	C914.970276,577.398743 914.916138,578.129272 914.483948,578.912537 
	C890.650818,586.087524 869.276184,597.506104 848.390625,610.732666 
	C831.553406,619.756897 817.043030,630.909302 807.739380,647.653931 
	C784.849915,688.850403 773.991028,733.440735 771.121643,780.142029 
	C769.778137,802.008972 771.818542,823.649902 777.564941,844.876282 
	C774.201965,845.969482 771.179749,846.881836 768.238892,848.006653 
	C745.909302,856.547729 724.785278,867.266846 707.445557,884.069885 
	C702.798584,888.573059 699.637939,894.609985 695.463989,900.035400 
	C693.746704,903.243164 691.847473,906.234863 691.063110,909.494690 
	C687.687256,923.524780 688.056091,937.739380 689.314209,952.078125 
	C686.426208,957.105408 686.379150,962.179382 687.962524,967.377075 
	C689.336487,971.887573 690.660950,976.413025 692.007324,980.931885 
	C686.832947,981.612427 681.590393,983.186829 676.497620,982.798157 
	C663.577637,981.812195 650.839966,979.672852 639.406433,972.751709 
	C627.498047,965.543091 617.322205,956.575745 608.864563,945.449890 
	C595.942993,928.452087 585.888367,909.894409 578.116577,890.113647 
	C567.011047,861.847839 558.173706,832.827026 552.345032,803.033447 
	C548.731995,784.565186 545.046753,765.999390 545.420959,746.452271 
	C551.299072,745.187012 556.794678,744.747131 562.179626,743.724915 
	C571.053406,742.040405 571.023254,741.881592 571.023560,733.063721 
	C571.023682,730.897278 570.824402,728.704529 571.105957,726.575256 
	C571.253052,725.463013 571.991089,724.093750 572.896057,723.467896 
	C583.772644,715.946289 583.793884,715.976929 595.551453,722.652100 
	C595.696228,722.734314 595.859558,722.793579 595.985291,722.898376 
	C598.581238,725.062927 600.475342,724.211304 602.724915,721.971252 
	C612.962708,711.776428 620.403503,699.921387 624.747864,686.141663 
	C627.449524,677.572327 627.421814,677.564575 619.859802,673.157959 
	C618.276550,672.235413 616.385742,671.590210 615.203674,670.298340 
	C613.945374,668.923096 612.940552,667.021118 612.551941,665.194397 
	C610.535645,655.715393 614.334595,649.491211 623.521790,646.483948 
	C624.136780,646.282593 624.879761,645.927673 625.177612,645.418579 
	C625.762695,644.418579 626.633545,643.134033 626.419617,642.185120 
	C622.376404,624.249146 613.376038,609.252136 599.499756,596.907288 
	C595.389099,599.269104 591.586670,601.665833 587.576355,603.640198 
	C586.214783,604.310547 584.138611,604.439270 582.713257,603.922119 
	C573.677979,600.643738 568.608459,594.803162 571.011658,584.528931 
	C571.797485,581.169067 569.744385,579.777466 566.991638,578.919434 
	C577.301453,548.246765 591.430298,519.614868 612.671936,494.927460 
	C619.029602,487.538483 626.123901,480.783295 633.290894,473.500793 
	C637.546875,474.112518 641.388428,475.675659 645.239014,475.697968 
	C678.807800,475.892792 712.378174,475.794891 745.948120,475.826080 
	C753.137573,475.832764 759.285339,473.605255 764.002258,467.994537 
z"/>
<path fill="#E9E8F6" opacity="1.000000" stroke="none" 
	d="
M1333.025513,674.436646 
	C1334.123047,684.455505 1335.589722,694.451233 1336.219116,704.499390 
	C1336.909546,715.517944 1337.468140,726.616943 1336.917603,737.622498 
	C1336.258057,750.807068 1334.822388,763.999146 1332.848877,777.055847 
	C1331.469727,786.179565 1329.062012,795.216309 1326.345215,804.055664 
	C1319.796265,825.363342 1310.232300,845.435608 1297.017456,863.296509 
	C1287.897217,875.623291 1277.215698,886.967773 1266.138184,897.613281 
	C1258.712158,904.749695 1249.370605,909.892944 1240.371704,915.622559 
	C1237.657104,909.562012 1235.457031,903.807068 1233.260254,897.657227 
	C1231.383179,893.818848 1230.145020,889.729980 1227.478516,887.075806 
	C1222.931396,882.549561 1217.804565,878.417542 1212.363159,875.011719 
	C1193.243042,863.044617 1172.340210,854.982422 1150.998169,847.580017 
	C1154.999023,827.865784 1154.110840,808.449707 1151.799561,789.116455 
	C1146.771851,747.058716 1136.735962,706.129639 1122.785767,666.165344 
	C1117.944702,652.296448 1112.833862,638.267944 1100.331177,629.239563 
	C1090.272827,621.976318 1079.482788,615.726318 1068.742432,608.819519 
	C1055.307983,602.018250 1042.305420,595.081665 1028.932861,588.952637 
	C1020.252075,584.973938 1011.031372,582.173096 1001.958496,578.459351 
	C1001.245483,573.382568 1000.626404,568.690918 1000.047607,563.641846 
	C1000.273499,562.663269 1000.316528,561.943970 1000.666382,561.435730 
	C1005.040283,555.082092 1010.228821,549.147461 1013.669067,542.328735 
	C1017.883606,533.975403 1020.644104,524.888367 1024.411865,516.087158 
	C1034.970337,513.204651 1041.545410,506.501007 1041.778931,497.251587 
	C1041.922119,491.576782 1040.439453,485.860962 1039.686890,480.163544 
	C1055.378052,472.195862 1071.126831,464.320465 1088.531982,460.718079 
	C1106.635620,456.971100 1124.762207,455.839905 1143.245361,458.707367 
	C1163.249512,461.810791 1182.019531,467.960297 1199.676514,477.731018 
	C1200.083862,477.956482 1200.648804,477.897308 1201.606445,478.385590 
	C1202.146240,480.474457 1202.219971,482.148621 1202.218750,484.296875 
	C1202.124023,540.565796 1202.091553,596.360657 1202.093140,652.155518 
	C1202.093506,666.100647 1210.160889,674.139404 1224.126709,674.148315 
	C1258.436646,674.170349 1292.746704,674.150024 1327.056641,674.166260 
	C1329.046265,674.167175 1331.035889,674.342529 1333.025513,674.436646 
z"/>
<path fill="#3E4464" opacity="1.000000" stroke="none" 
	d="
M1233.256836,898.052124 
	C1235.457031,903.807068 1237.657104,909.562012 1240.028198,915.666931 
	C1240.851685,926.018372 1241.504150,936.019958 1242.071167,946.864014 
	C1240.801636,961.273010 1234.099487,970.991882 1221.890137,977.092163 
	C1216.990601,979.540283 1212.421265,982.640015 1207.589844,985.235107 
	C1152.386475,1014.886292 1095.091309,1039.656250 1035.010132,1058.945068 
	C1016.650085,1063.630249 998.730408,1068.350342 980.747620,1072.816040 
	C974.804749,1074.291748 968.520691,1075.769287 964.802490,1068.464966 
	C964.676453,1068.217407 964.246521,1068.124634 963.943665,1067.587891 
	C962.919800,1064.772583 961.908813,1062.329712 960.901489,1059.885254 
	C954.464294,1044.265625 949.791687,1028.211060 948.929810,1010.750732 
	C948.960815,1009.281860 948.849365,1008.263794 949.009399,1007.290405 
	C949.823853,1002.336426 948.031433,1000.742432 942.829834,1000.855652 
	C930.569946,1001.122375 918.394348,1001.177673 906.287354,1003.864990 
	C877.048401,1010.355042 849.053833,1019.181335 827.469177,1042.059570 
	C817.439392,1038.028198 807.658752,1034.245117 798.132751,1029.903320 
	C766.885986,1015.661072 736.750488,999.448669 708.934753,979.136963 
	C699.408386,972.180420 691.264099,964.446960 689.658813,951.967224 
	C688.056091,937.739380 687.687256,923.524780 691.063110,909.494690 
	C691.847473,906.234863 693.746704,903.243164 695.889526,900.037476 
	C701.543884,899.299805 706.425781,898.292358 711.342712,898.072937 
	C726.337463,897.403870 740.942566,900.311096 755.427551,903.701782 
	C779.313843,909.293091 801.890686,918.668823 824.583984,928.008179 
	C824.712891,927.969238 824.977112,928.017273 824.905762,928.450317 
	C824.645935,931.355652 824.569580,933.842834 824.243591,936.296875 
	C823.702332,940.370667 824.755554,942.303833 829.478333,942.181824 
	C839.567749,941.921204 849.672607,942.259827 859.848145,942.742737 
	C860.589233,943.780945 861.143188,944.649292 861.933777,945.045227 
	C877.361450,952.772949 892.828796,960.421326 908.262878,968.136414 
	C923.063416,975.534851 937.885315,982.895020 952.554993,990.545776 
	C954.340149,991.476807 955.238770,994.107849 956.666748,996.117859 
	C965.382629,990.369995 974.502075,983.412415 984.456360,977.986572 
	C1005.632874,966.443909 1027.249146,955.708740 1048.655151,944.584900 
	C1049.574951,944.106934 1050.195312,943.053162 1051.419922,942.178467 
	C1065.478760,942.089417 1079.072754,942.089417 1092.967407,942.089417 
	C1092.967407,936.893250 1092.967407,932.437622 1093.008179,927.606079 
	C1093.089966,926.478577 1093.130981,925.726990 1093.564453,924.980774 
	C1096.189697,924.396790 1098.472778,923.950684 1100.646240,923.191406 
	C1107.226685,920.892700 1113.660645,918.114258 1120.340576,916.172668 
	C1135.273071,911.832214 1150.210815,907.409729 1165.355591,903.931335 
	C1177.080566,901.238342 1189.063721,899.255737 1201.041626,898.202026 
	C1211.701904,897.264160 1222.512573,898.035278 1233.256836,898.052124 
z"/>
<path fill="#8A6CFF" opacity="1.000000" stroke="none" 
	d="
M1333.485107,674.344727 
	C1331.035889,674.342529 1329.046265,674.167175 1327.056641,674.166260 
	C1292.746704,674.150024 1258.436646,674.170349 1224.126709,674.148315 
	C1210.160889,674.139404 1202.093506,666.100647 1202.093140,652.155518 
	C1202.091553,596.360657 1202.124023,540.565796 1202.666016,484.312408 
	C1263.682983,483.879974 1324.177856,483.917419 1384.672607,483.926208 
	C1407.336548,483.929504 1430.000488,483.866150 1452.664429,483.833160 
	C1452.735962,485.660278 1452.869507,487.487396 1452.869873,489.314514 
	C1452.881470,543.277283 1452.659546,597.241699 1453.047974,651.201660 
	C1453.135986,663.433167 1445.290161,674.659119 1429.873169,674.369019 
	C1397.907593,673.767578 1365.921997,674.228638 1333.485107,674.344727 
M1347.500000,599.197571 
	C1319.033447,599.197510 1290.566772,599.194641 1262.100220,599.204712 
	C1260.439819,599.205322 1258.352661,598.705933 1257.217651,599.506958 
	C1255.454224,600.751343 1253.380249,602.845642 1253.247437,604.708740 
	C1253.138306,606.239075 1255.402344,608.361328 1257.106323,609.454651 
	C1258.310547,610.227295 1260.336792,609.773438 1261.996094,609.773804 
	C1311.604492,609.784546 1361.213013,609.784546 1410.821411,609.780762 
	C1412.318359,609.780640 1414.207642,610.283020 1415.226562,609.569519 
	C1417.062256,608.284119 1419.558105,606.267029 1419.576660,604.532104 
	C1419.595215,602.800232 1417.140259,600.728210 1415.328003,599.414551 
	C1414.330322,598.691345 1412.423584,599.192322 1410.926758,599.192078 
	C1390.117798,599.188965 1369.308960,599.194519 1347.500000,599.197571 
M1316.500000,506.891449 
	C1288.668457,506.893463 1260.836914,506.925995 1233.005615,506.859833 
	C1229.425903,506.851318 1226.298950,507.582703 1226.255371,511.646515 
	C1226.210205,515.871277 1229.327515,516.976807 1233.146973,516.973328 
	C1278.144043,516.932922 1323.140991,516.947083 1368.138062,516.940613 
	C1371.710083,516.940063 1375.133179,516.457581 1375.065918,511.798523 
	C1374.998535,507.133026 1371.591309,506.863312 1367.996704,506.872284 
	C1351.164429,506.914337 1334.332275,506.891113 1316.500000,506.891449 
M1343.500000,563.103333 
	C1351.494019,563.103333 1359.488159,563.104919 1367.482178,563.102783 
	C1375.143188,563.100708 1382.804688,563.040344 1390.464966,563.114319 
	C1394.066772,563.149109 1396.535400,561.535522 1396.480957,557.997620 
	C1396.426514,554.453003 1393.872681,552.834534 1390.300903,553.053162 
	C1389.637329,553.093811 1388.968872,553.055603 1388.302734,553.055603 
	C1346.000732,553.054260 1303.698730,553.047058 1261.396729,553.073059 
	C1259.587280,553.074158 1257.358521,552.791931 1256.078979,553.701904 
	C1254.602051,554.752380 1253.171997,556.994202 1253.202271,558.692200 
	C1253.227783,560.125305 1255.143188,561.891541 1256.649170,562.810364 
	C1257.764160,563.490540 1259.565063,563.095398 1261.060303,563.095947 
	C1288.206909,563.106018 1315.353394,563.103455 1343.500000,563.103333 
M1325.500000,655.932251 
	C1331.990112,655.932251 1338.480225,655.932617 1344.970337,655.932190 
	C1352.625366,655.931641 1360.280273,655.926453 1367.935303,655.931335 
	C1371.468506,655.933594 1374.952026,655.618408 1375.059204,650.990723 
	C1375.166382,646.362000 1371.874756,645.745178 1368.210938,645.880981 
	C1367.878540,645.893311 1367.545410,645.881165 1367.212524,645.881165 
	C1331.600220,645.880981 1295.987793,645.879944 1260.375488,645.885254 
	C1259.212402,645.885437 1257.706787,645.505066 1256.957642,646.079895 
	C1255.411255,647.266113 1253.338013,648.908691 1253.219849,650.493103 
	C1253.100952,652.087769 1254.772461,654.263306 1256.261841,655.383789 
	C1257.378784,656.224060 1259.450073,655.912537 1261.096680,655.914612 
	C1282.231079,655.941406 1303.365601,655.932190 1325.500000,655.932251 
M1299.500000,540.025146 
	C1313.151611,540.026428 1326.807617,540.196838 1340.450195,539.847168 
	C1342.501831,539.794617 1344.943848,537.642090 1346.292236,535.794739 
	C1346.850830,535.029419 1345.298096,532.269348 1344.144409,530.883728 
	C1343.487915,530.095459 1341.698730,530.017639 1340.419067,530.015503 
	C1313.282471,529.970337 1286.145752,529.973694 1259.009155,530.009033 
	C1257.878052,530.010498 1256.380005,530.040161 1255.698242,530.711792 
	C1254.517944,531.874634 1253.148193,533.553772 1253.153320,535.011780 
	C1253.158447,536.464783 1254.452271,538.361511 1255.742432,539.231995 
	C1256.963257,540.055725 1258.912109,539.982422 1260.541992,539.989441 
	C1273.194458,540.044250 1285.847290,540.022949 1299.500000,540.025146 
M1361.412476,586.711670 
	C1364.722168,586.511841 1368.194214,586.841309 1371.275635,585.896790 
	C1372.902100,585.398315 1374.893677,582.623596 1374.806641,580.977722 
	C1374.719482,579.330200 1372.404907,577.607056 1370.751465,576.323303 
	C1370.006958,575.745239 1368.496094,576.121033 1367.333008,576.120667 
	C1344.032227,576.113464 1320.731323,576.113708 1297.430542,576.116272 
	C1296.432617,576.116333 1295.105713,575.750366 1294.497925,576.247192 
	C1292.614380,577.786804 1290.166626,579.439575 1289.624146,581.493835 
	C1289.331055,582.603577 1292.221313,585.146912 1294.143188,586.076599 
	C1295.948364,586.949829 1298.368652,586.686890 1300.518677,586.690735 
	C1320.490845,586.726257 1340.462891,586.711365 1361.412476,586.711670 
M1233.851440,632.859619 
	C1255.176147,632.861511 1276.500977,632.835938 1297.825439,632.892151 
	C1301.388184,632.901550 1304.442505,631.983459 1304.725586,628.070923 
	C1305.040527,623.720398 1301.694824,622.371765 1298.093262,622.355652 
	C1276.436035,622.259033 1254.777954,622.260498 1233.120483,622.337036 
	C1229.556885,622.349670 1226.119263,623.501709 1226.254761,627.853760 
	C1226.376953,631.783508 1229.351318,633.003723 1233.851440,632.859619 
z"/>
<path fill="#404665" opacity="1.000000" stroke="none" 
	d="
M566.600464,578.933716 
	C569.744385,579.777466 571.797485,581.169067 571.011658,584.528931 
	C568.608459,594.803162 573.677979,600.643738 582.713257,603.922119 
	C584.138611,604.439270 586.214783,604.310547 587.576355,603.640198 
	C591.586670,601.665833 595.389099,599.269104 599.499756,596.907288 
	C613.376038,609.252136 622.376404,624.249146 626.419617,642.185120 
	C626.633545,643.134033 625.762695,644.418579 625.177612,645.418579 
	C624.879761,645.927673 624.136780,646.282593 623.521790,646.483948 
	C614.334595,649.491211 610.535645,655.715393 612.551941,665.194397 
	C612.940552,667.021118 613.945374,668.923096 615.203674,670.298340 
	C616.385742,671.590210 618.276550,672.235413 619.859802,673.157959 
	C627.421814,677.564575 627.449524,677.572327 624.747864,686.141663 
	C620.403503,699.921387 612.962708,711.776428 602.724915,721.971252 
	C600.475342,724.211304 598.581238,725.062927 595.985291,722.898376 
	C595.859558,722.793579 595.696228,722.734314 595.551453,722.652100 
	C583.793884,715.976929 583.772644,715.946289 572.896057,723.467896 
	C571.991089,724.093750 571.253052,725.463013 571.105957,726.575256 
	C570.824402,728.704529 571.023682,730.897278 571.023560,733.063721 
	C571.023254,741.881592 571.053406,742.040405 562.179626,743.724915 
	C556.794678,744.747131 551.299072,745.187012 545.420044,745.998474 
	C536.933044,744.990479 528.877319,743.885315 520.826111,742.748413 
	C517.413574,742.266479 515.927246,740.728821 515.986511,736.820251 
	C516.189453,723.431641 516.018921,723.382568 504.158234,717.632263 
	C503.085754,717.112366 501.334656,717.346375 500.152618,717.839172 
	C498.020325,718.728271 496.078369,720.075012 494.060150,721.236206 
	C487.402008,725.066772 487.392273,725.077515 481.956268,719.335999 
	C470.813599,707.566956 463.626495,693.744019 460.235443,677.334106 
	C464.147522,675.039551 468.277832,672.926331 472.017365,670.264160 
	C473.420685,669.265198 473.990448,667.024414 474.780487,665.277466 
	C475.021790,664.743958 474.549652,663.921814 474.710632,663.312866 
	C477.087341,654.322510 472.004547,649.951904 464.630737,647.076172 
	C460.825378,645.591980 460.096436,643.361633 461.237396,639.365051 
	C465.976685,622.763977 474.487854,608.636230 487.687225,596.890137 
	C491.612610,599.142151 495.575012,601.207397 499.304230,603.631287 
	C501.622620,605.138184 503.160980,604.392151 505.541779,603.487915 
	C514.693970,600.011780 517.976685,593.757446 516.112000,584.397400 
	C515.435059,580.999512 517.355225,579.860962 520.338928,579.065674 
	C535.640076,574.987183 550.908630,574.887512 566.600464,578.933716 
M544.709534,701.598999 
	C569.998779,699.347839 586.220520,680.697205 584.023682,656.398499 
	C582.539551,639.984009 568.943298,624.387512 553.209534,621.863892 
	C542.951538,618.399536 533.263428,620.337952 524.034973,625.254089 
	C507.576233,634.021667 499.307037,653.670105 504.313538,671.672119 
	C509.291321,689.570862 526.164856,702.207764 544.709534,701.598999 
z"/>
<path fill="#2A3054" opacity="1.000000" stroke="none" 
	d="
M875.300415,475.232239 
	C872.043701,464.074951 868.118347,453.054932 865.788513,441.707367 
	C864.454224,435.209015 864.873474,428.037109 865.985657,421.417480 
	C868.089661,408.894379 875.999451,401.192993 888.353882,397.955200 
	C889.944092,397.538452 891.436829,395.995483 892.544189,394.626038 
	C896.582703,389.631683 899.491333,383.125580 904.522156,379.632080 
	C930.696960,361.455933 960.116150,356.530182 990.145691,365.822052 
	C1020.500549,375.214508 1038.241455,404.458313 1037.299316,438.959564 
	C1036.997559,450.008362 1034.383667,460.993988 1032.364014,472.411743 
	C1031.248047,474.208130 1030.479736,475.560150 1029.967529,477.003052 
	C1028.908203,479.988068 1027.984985,483.021484 1026.811523,485.843323 
	C1026.317383,485.448242 1026.017212,485.244812 1025.566650,484.759521 
	C1014.940125,475.053223 1008.393005,463.087891 1003.646851,449.888397 
	C990.538025,453.020416 978.172974,450.963654 965.887634,447.568207 
	C960.766846,446.152893 955.623840,444.803680 950.452271,443.589355 
	C936.387695,440.286896 923.044922,441.793884 910.822815,449.949432 
	C909.509216,450.825989 907.773499,452.052094 907.512695,453.369293 
	C905.379395,464.143890 900.494202,473.697510 894.984558,483.000366 
	C895.008301,483.000946 894.993286,482.955841 894.700317,483.095215 
	C893.533630,484.448639 892.659851,485.662659 891.837036,486.889771 
	C891.887878,486.902893 891.870483,486.799286 891.607544,486.883362 
	C891.158508,487.274567 890.972290,487.581726 890.500977,488.054138 
	C888.152283,490.003418 886.088806,491.787415 883.690369,493.348999 
	C881.932617,488.264984 880.696716,483.335449 878.970093,478.584259 
	C878.468628,477.204590 876.562622,476.335419 875.300415,475.232239 
z"/>
<path fill="#FEB29E" opacity="1.000000" stroke="none" 
	d="
M1025.717163,485.041382 
	C1026.017212,485.244812 1026.317383,485.448242 1026.810059,486.301147 
	C1026.012939,496.673309 1025.023071,506.395935 1024.033325,516.118591 
	C1020.644104,524.888367 1017.883606,533.975403 1013.669067,542.328735 
	C1010.228821,549.147461 1005.040283,555.082092 1000.666382,561.435730 
	C1000.316528,561.943970 1000.273499,562.663269 999.692261,563.677490 
	C995.147522,566.683228 991.256104,569.928528 986.784607,571.749878 
	C981.093140,574.068176 974.932068,575.233704 968.512207,576.924561 
	C956.849976,577.241455 945.784485,576.113647 935.379028,571.873840 
	C928.666443,569.138672 922.392334,565.327515 915.921692,561.998535 
	C910.840332,556.407104 905.758972,550.815674 900.396545,545.039856 
	C896.513306,537.094604 892.911011,529.333740 889.147583,520.846802 
	C887.332703,511.270996 885.679016,502.421204 884.025269,493.571411 
	C886.088806,491.787415 888.152283,490.003418 890.769531,487.976257 
	C891.505615,487.421844 891.688049,487.110565 891.870483,486.799286 
	C891.870483,486.799286 891.887878,486.902893 892.169678,486.805420 
	C893.298767,485.457245 894.145996,484.206543 894.993286,482.955841 
	C894.993286,482.955841 895.008301,483.000946 895.327209,482.965637 
	C899.499573,477.795319 904.302124,473.112732 907.010132,467.431732 
	C912.744751,455.401062 921.788574,450.009979 934.762207,451.024658 
	C940.182251,451.448547 945.634888,452.250000 950.913025,453.535583 
	C963.852234,456.687073 976.726440,459.823853 990.182678,457.037750 
	C993.723206,456.304718 998.190613,454.227020 1000.642639,455.601959 
	C1003.411682,457.154663 1004.237610,461.993622 1006.173950,465.245422 
	C1011.050049,473.434052 1016.501282,481.112244 1025.717163,485.041382 
M978.784485,549.479919 
	C979.854919,548.340759 980.925354,547.201599 981.995789,546.062439 
	C981.837341,545.660950 981.678894,545.259399 981.520447,544.857849 
	C968.532104,549.575867 955.515076,549.071472 942.301575,544.884216 
	C942.520264,546.162964 942.468201,546.572388 942.648438,546.771057 
	C943.086060,547.253357 943.601807,547.680725 944.138367,548.055237 
	C955.096924,555.703186 966.509949,554.908752 978.784485,549.479919 
M978.973633,501.267883 
	C980.467346,502.533875 981.961121,503.799896 983.454773,505.065826 
	C984.702332,503.449249 986.560059,501.992828 987.037537,500.174072 
	C987.589111,498.073273 987.354614,495.505341 986.639282,493.422638 
	C986.147400,491.990448 984.285706,490.168732 982.980713,490.123413 
	C981.733765,490.080109 979.718628,491.891815 979.286072,493.276794 
	C978.582764,495.528687 978.894287,498.097504 978.973633,501.267883 
M938.056335,494.526947 
	C936.591003,492.969818 935.125671,491.412689 933.660339,489.855560 
	C932.255981,491.708984 930.764893,493.505920 929.498474,495.449219 
	C929.101257,496.058807 929.145081,497.087646 929.268005,497.881104 
	C929.745972,500.968018 929.972900,505.078064 933.913696,504.766724 
	C935.580261,504.635010 937.053223,500.588745 938.354309,498.181396 
	C938.749878,497.449554 938.276917,496.248383 938.056335,494.526947 
M987.285767,468.259979 
	C989.727051,468.740051 992.168396,469.220123 995.916260,469.957123 
	C993.048767,464.698914 989.584167,462.770355 985.306885,463.157135 
	C981.666931,463.486237 978.131470,464.872437 976.687927,470.023285 
	C980.514526,469.299988 983.498718,468.735901 987.285767,468.259979 
M932.832947,463.454498 
	C927.719910,462.576324 924.478699,464.875061 922.126587,469.389404 
	C927.899292,469.389404 933.193787,469.389404 938.488281,469.389404 
	C938.740112,469.024475 938.991943,468.659546 939.243713,468.294617 
	C937.339905,466.787476 935.436096,465.280365 932.832947,463.454498 
M963.667236,533.378479 
	C967.108521,534.613464 970.697144,534.222351 970.738647,530.175293 
	C970.789429,525.230713 969.203003,520.269348 968.324524,515.315308 
	C967.535645,515.456726 966.746765,515.598083 965.957825,515.739502 
	C966.583374,518.799316 967.254272,521.850708 967.822693,524.921082 
	C968.503601,528.598755 968.435974,531.933716 963.667236,533.378479 
z"/>
<path fill="#D8D7E5" opacity="1.000000" stroke="none" 
	d="
M1035.426025,1058.880737 
	C1095.091309,1039.656250 1152.386475,1014.886292 1207.589844,985.235107 
	C1212.421265,982.640015 1216.990601,979.540283 1221.890137,977.092163 
	C1234.099487,970.991882 1240.801636,961.273010 1242.133545,947.324951 
	C1247.223999,950.210327 1249.224609,961.320801 1246.291870,969.395508 
	C1241.671021,982.118347 1234.055420,992.864197 1224.863892,1002.577271 
	C1209.146729,1019.186157 1191.158081,1032.873047 1171.904053,1045.227417 
	C1137.008789,1067.617798 1099.262085,1083.213989 1059.251343,1093.109497 
	C1040.385498,1097.775391 1020.945923,1100.457031 1001.616272,1102.800171 
	C987.172729,1104.550781 972.464355,1105.159424 957.918579,1104.737549 
	C942.755798,1104.297729 927.646484,1102.012939 912.544983,1100.005737 
	C925.275574,1095.141602 938.063721,1091.042847 950.619873,1086.326416 
	C954.358154,1084.922241 957.411011,1084.459595 961.424194,1085.315063 
	C975.345947,1088.283203 989.327881,1091.473633 1003.454895,1092.833862 
	C1017.891602,1094.223633 1027.993896,1086.635376 1032.616455,1072.985229 
	C1034.141113,1068.483032 1034.522095,1063.593262 1035.426025,1058.880737 
z"/>
<path fill="#8A6CFF" opacity="1.000000" stroke="none" 
	d="
M764.137939,467.666870 
	C759.285339,473.605255 753.137573,475.832764 745.948120,475.826080 
	C712.378174,475.794891 678.807800,475.892792 645.239014,475.697968 
	C641.388428,475.675659 637.546875,474.112518 633.344849,473.171387 
	C625.723083,468.078674 623.104980,461.014496 623.280334,452.406342 
	C623.503906,441.424957 623.284546,430.435272 623.339600,419.449585 
	C623.410400,405.320190 631.258728,397.394135 645.314758,397.373566 
	C679.104919,397.324097 712.895264,397.317352 746.685425,397.368988 
	C759.712646,397.388885 767.785889,405.588043 767.820129,418.636200 
	C767.851562,430.620819 768.133972,442.617584 767.665344,454.583923 
	C767.497375,458.873383 765.458618,463.089569 764.137939,467.666870 
M724.950134,411.182281 
	C723.118591,411.971313 720.180176,412.365662 719.723938,413.645111 
	C719.094543,415.410217 719.990112,418.005035 720.888977,419.939362 
	C721.618347,421.509003 723.314453,422.629852 724.583252,423.948303 
	C728.561707,428.082306 732.540833,432.215668 738.052979,437.942108 
	C731.885925,443.347595 726.131897,448.140503 720.699341,453.273651 
	C718.468506,455.381500 717.875061,458.424713 720.530518,460.786957 
	C723.135742,463.104462 725.743408,462.188171 727.990173,459.865112 
	C733.888489,453.766510 739.723877,447.604828 745.719055,441.602783 
	C748.953003,438.365112 749.027771,435.188446 745.968140,432.031311 
	C739.262146,425.111511 732.435669,418.308472 724.950134,411.182281 
M665.507996,448.006470 
	C661.979858,444.292145 658.451782,440.577850 654.778503,436.710724 
	C655.906738,435.333405 656.670166,434.268890 657.565796,433.330597 
	C661.806946,428.887573 666.099121,424.493317 670.342468,420.052368 
	C672.585571,417.704742 673.171509,414.954437 670.862183,412.516510 
	C668.454834,409.975098 665.790161,410.644379 663.490906,413.054169 
	C657.186890,419.661194 650.711182,426.119141 644.727478,433.004578 
	C643.547546,434.362305 643.231873,438.263214 644.275635,439.467560 
	C650.575684,446.736664 657.232117,453.723938 664.174133,460.383667 
	C665.382385,461.542755 669.468811,461.613342 670.511414,460.532654 
	C671.719421,459.280518 671.759949,455.903748 670.977112,453.994781 
	C670.097046,451.848572 667.732056,450.311249 665.507996,448.006470 
M707.046753,412.656525 
	C702.349609,409.930328 700.217102,410.578064 698.122620,416.013641 
	C693.233276,428.702332 688.564026,441.475677 683.772156,454.202118 
	C682.586670,457.350525 682.444031,460.359711 686.079468,461.680969 
	C689.517151,462.930450 691.711182,461.011292 692.931946,457.740112 
	C697.627869,445.156189 702.450745,432.618713 707.012878,419.986847 
	C707.745117,417.959442 707.389526,415.539185 707.046753,412.656525 
z"/>
<path fill="#2A3054" opacity="1.000000" stroke="none" 
	d="
M1452.746826,483.380219 
	C1430.000488,483.866150 1407.336548,483.929504 1384.672607,483.926208 
	C1324.177856,483.917419 1263.682983,483.879974 1202.740967,483.838379 
	C1202.219971,482.148621 1202.146240,480.474457 1201.972534,478.392609 
	C1201.945557,472.830292 1201.973633,467.674500 1202.100220,462.521149 
	C1202.409790,449.917755 1210.708862,441.699738 1223.349365,441.693634 
	C1292.771973,441.660126 1362.194580,441.658783 1431.617188,441.698364 
	C1444.585693,441.705750 1452.812012,450.024658 1452.870850,462.951111 
	C1452.901245,469.609619 1452.845825,476.268555 1452.746826,483.380219 
M1280.500000,469.794281 
	C1286.658447,469.794464 1292.816895,469.817139 1298.975220,469.789032 
	C1306.206421,469.756012 1310.960815,466.792694 1310.786987,462.480591 
	C1310.619141,458.322052 1306.206787,455.558258 1299.108276,455.538910 
	C1275.972900,455.475891 1252.837036,455.480469 1229.701782,455.574646 
	C1227.260864,455.584564 1224.431152,455.735199 1222.493408,456.952911 
	C1220.529663,458.186951 1218.407715,460.771362 1218.297363,462.866577 
	C1218.202148,464.674042 1220.468018,467.300903 1222.361938,468.335449 
	C1224.545288,469.528198 1227.463501,469.725433 1230.066772,469.743011 
	C1246.543945,469.854431 1263.022095,469.796295 1280.500000,469.794281 
M1400.796509,456.260864 
	C1397.486206,458.067017 1395.847656,460.808777 1396.928589,464.513916 
	C1398.060303,468.393158 1401.001343,470.290680 1404.942261,469.526276 
	C1408.857056,468.766968 1410.972534,465.946594 1410.633423,461.921295 
	C1410.261963,457.510101 1406.809814,455.428284 1400.796509,456.260864 
M1423.234253,460.191071 
	C1424.133789,462.986328 1424.336182,466.466339 1426.175415,468.338409 
	C1427.421265,469.606567 1431.522583,469.507141 1433.329590,468.383484 
	C1435.151245,467.250549 1436.888916,463.880249 1436.520264,461.886688 
	C1436.107178,459.652832 1433.647339,457.085175 1431.432495,456.066376 
	C1428.232788,454.594574 1425.366821,456.414337 1423.234253,460.191071 
z"/>
<path fill="#2A3054" opacity="1.000000" stroke="none" 
	d="
M1035.010254,1058.945068 
	C1034.522095,1063.593262 1034.141113,1068.483032 1032.616455,1072.985229 
	C1027.993896,1086.635376 1017.891602,1094.223633 1003.454895,1092.833862 
	C989.327881,1091.473633 975.345947,1088.283203 961.424194,1085.315063 
	C957.411011,1084.459595 954.358154,1084.922241 950.619873,1086.326416 
	C938.063721,1091.042847 925.275574,1095.141602 912.285034,1099.714111 
	C900.498413,1101.453247 889.038025,1103.409058 877.495422,1104.301514 
	C869.444885,1104.923706 861.274902,1104.237793 853.170593,1103.867432 
	C842.635559,1103.386353 835.554688,1097.789673 831.475037,1088.275757 
	C829.976990,1084.782471 828.850342,1081.130127 827.367676,1076.832031 
	C827.021912,1067.680786 826.753906,1059.247559 826.763245,1050.814697 
	C826.766479,1047.893311 827.457947,1044.972656 827.834961,1042.051758 
	C849.053833,1019.181335 877.048401,1010.355042 906.287354,1003.864990 
	C918.394348,1001.177673 930.569946,1001.122375 942.829834,1000.855652 
	C948.031433,1000.742432 949.823853,1002.336426 949.009399,1007.290405 
	C948.849365,1008.263794 948.960815,1009.281860 948.478760,1010.661255 
	C932.855896,1010.489746 918.210876,1013.614441 903.929810,1018.085510 
	C894.790344,1020.946838 886.078186,1025.194458 877.230774,1028.953125 
	C874.788025,1029.991089 873.239380,1031.587280 874.342346,1034.819458 
	C880.045105,1051.532227 884.843262,1068.400269 880.897522,1086.673096 
	C894.413757,1088.007690 907.421021,1086.909668 920.293945,1084.049438 
	C935.563538,1080.656860 950.769714,1077.028076 963.958252,1067.959717 
	C964.246521,1068.124634 964.676453,1068.217407 964.802490,1068.464966 
	C968.520691,1075.769287 974.804749,1074.291748 980.747620,1072.816040 
	C998.730408,1068.350342 1016.650085,1063.630249 1035.010254,1058.945068 
z"/>
<path fill="#D8D7E5" opacity="1.000000" stroke="none" 
	d="
M827.469177,1042.059570 
	C827.457947,1044.972656 826.766479,1047.893311 826.763245,1050.814697 
	C826.753906,1059.247559 827.021912,1067.680786 827.139648,1076.542969 
	C821.065063,1074.799683 814.668030,1073.311157 809.065002,1070.330078 
	C790.297363,1060.345215 771.228394,1050.737915 753.375854,1039.271729 
	C733.247375,1026.343872 714.808167,1011.006531 700.223755,991.641418 
	C697.641357,988.212402 695.147522,984.716553 692.310059,981.091736 
	C690.660950,976.413025 689.336487,971.887573 687.962524,967.377075 
	C686.379150,962.179382 686.426208,957.105408 689.314209,952.078125 
	C691.264099,964.446960 699.408386,972.180420 708.934753,979.136963 
	C736.750488,999.448669 766.885986,1015.661072 798.132751,1029.903320 
	C807.658752,1034.245117 817.439392,1038.028198 827.469177,1042.059570 
z"/>
<path fill="#FDA893" opacity="1.000000" stroke="none" 
	d="
M883.690430,493.348999 
	C885.679016,502.421204 887.332703,511.270996 889.005066,520.509583 
	C878.728394,520.025757 870.330505,516.044678 866.543091,505.791077 
	C862.893127,495.909454 865.671265,482.795410 873.532227,477.191193 
	C874.057922,476.816437 874.429871,476.226013 875.086853,475.484070 
	C876.562622,476.335419 878.468628,477.204590 878.970093,478.584259 
	C880.696716,483.335449 881.932617,488.264984 883.690430,493.348999 
z"/>
<path fill="#FDA893" opacity="1.000000" stroke="none" 
	d="
M1024.411865,516.087158 
	C1025.023071,506.395935 1026.012939,496.673309 1027.004150,486.492828 
	C1027.984985,483.021484 1028.908203,479.988068 1029.967529,477.003052 
	C1030.479736,475.560150 1031.248047,474.208130 1032.272217,472.790039 
	C1034.823608,475.094482 1037.003174,477.423859 1039.434814,479.958405 
	C1040.439453,485.860962 1041.922119,491.576782 1041.778931,497.251587 
	C1041.545410,506.501007 1034.970337,513.204651 1024.411865,516.087158 
z"/>
<path fill="#8A3EFF" opacity="1.000000" stroke="none" 
	d="
M1002.052551,578.844543 
	C1011.031372,582.173096 1020.252075,584.973938 1028.932861,588.952637 
	C1042.305420,595.081665 1055.307983,602.018250 1068.703369,609.164001 
	C1065.613892,615.007507 1061.159302,619.921814 1059.233765,625.681580 
	C1056.489136,633.891479 1055.108032,642.659485 1054.018555,651.299316 
	C1051.659668,670.005798 1052.489136,688.744019 1055.691650,707.280823 
	C1058.392334,722.912109 1061.862061,738.410461 1064.533813,754.010620 
	C1053.783813,753.424561 1043.498535,752.440857 1033.197754,752.234192 
	C1003.732300,751.642944 974.254272,750.803406 944.792847,751.125610 
	C915.184448,751.449463 885.590088,753.053528 855.989258,753.653687 
	C858.779541,735.936279 861.665344,718.676331 864.322632,701.381226 
	C865.750244,692.089905 867.286743,682.767944 867.840149,673.404602 
	C868.287231,665.838623 867.842529,658.126526 866.898621,650.591309 
	C865.004517,635.471436 861.610229,620.834839 848.724792,610.624695 
	C869.276184,597.506104 890.650818,586.087524 914.576416,579.348267 
	C914.914124,581.381958 914.903137,583.053345 914.627869,584.679993 
	C913.140442,593.471863 912.923035,593.920288 921.037842,597.416077 
	C947.640747,608.876343 973.865417,608.242188 999.434570,593.996948 
	C1003.746338,591.594727 1006.848755,589.003540 1003.177185,583.638245 
	C1002.312927,582.375183 1002.402039,580.459839 1002.052551,578.844543 
z"/>
<path fill="#896BFF" opacity="1.000000" stroke="none" 
	d="
M848.390625,610.732666 
	C861.610229,620.834839 865.004517,635.471436 866.898621,650.591309 
	C867.842529,658.126526 868.287231,665.838623 867.840149,673.404602 
	C867.286743,682.767944 865.750244,692.089905 864.322632,701.381226 
	C861.665344,718.676331 858.779541,735.936279 855.658936,753.883545 
	C841.340515,755.922424 827.351929,757.288635 813.123657,758.678345 
	C813.123657,761.321594 813.026428,762.966003 813.138428,764.595947 
	C814.437683,783.497620 815.763184,802.397461 817.093140,821.297058 
	C817.851562,832.074951 818.694519,842.847229 819.384949,853.629456 
	C820.298157,867.889771 821.099304,882.157288 821.589478,896.334351 
	C809.087769,890.847412 798.848572,882.873352 791.806274,871.673889 
	C786.459290,863.170471 782.513000,853.786255 777.943481,844.793945 
	C771.818542,823.649902 769.778137,802.008972 771.121643,780.142029 
	C773.991028,733.440735 784.849915,688.850403 807.739380,647.653931 
	C817.043030,630.909302 831.553406,619.756897 848.390625,610.732666 
z"/>
<path fill="#2A3054" opacity="1.000000" stroke="none" 
	d="
M777.564941,844.876282 
	C782.513000,853.786255 786.459290,863.170471 791.806274,871.673889 
	C798.848572,882.873352 809.087769,890.847412 821.731140,896.679260 
	C822.972900,907.423462 823.713989,917.735291 824.455017,928.047180 
	C801.890686,918.668823 779.313843,909.293091 755.427551,903.701782 
	C740.942566,900.311096 726.337463,897.403870 711.342712,898.072937 
	C706.425781,898.292358 701.543884,899.299805 696.220459,899.944824 
	C699.637939,894.609985 702.798584,888.573059 707.445557,884.069885 
	C724.785278,867.266846 745.909302,856.547729 768.238892,848.006653 
	C771.179749,846.881836 774.201965,845.969482 777.564941,844.876282 
z"/>
<path fill="#FDA893" opacity="1.000000" stroke="none" 
	d="
M1001.958496,578.459351 
	C1002.402039,580.459839 1002.312927,582.375183 1003.177185,583.638245 
	C1006.848755,589.003540 1003.746338,591.594727 999.434570,593.996948 
	C973.865417,608.242188 947.640747,608.876343 921.037842,597.416077 
	C912.923035,593.920288 913.140442,593.471863 914.627869,584.679993 
	C914.903137,583.053345 914.914124,581.381958 914.954590,579.295532 
	C914.916138,578.129272 914.970276,577.398743 915.441895,576.373474 
	C923.345642,577.808167 930.801758,579.683899 938.325317,581.231689 
	C948.805603,583.387817 958.894714,580.539795 969.005737,578.354614 
	C969.095886,578.335144 968.988586,577.402527 968.973450,576.896240 
	C974.932068,575.233704 981.093140,574.068176 986.784607,571.749878 
	C991.256104,569.928528 995.147522,566.683228 999.652039,564.034912 
	C1000.626404,568.690918 1001.245483,573.382568 1001.958496,578.459351 
z"/>
<path fill="#F87D72" opacity="1.000000" stroke="none" 
	d="
M968.512207,576.924561 
	C968.988586,577.402527 969.095886,578.335144 969.005737,578.354614 
	C958.894714,580.539795 948.805603,583.387817 938.325317,581.231689 
	C930.801758,579.683899 923.345642,577.808167 915.500610,576.010925 
	C915.387207,571.589172 915.632751,567.235291 915.900024,562.439941 
	C922.392334,565.327515 928.666443,569.138672 935.379028,571.873840 
	C945.784485,576.113647 956.849976,577.241455 968.512207,576.924561 
z"/>
<path fill="#896BFF" opacity="1.000000" stroke="none" 
	d="
M1064.991455,753.967712 
	C1061.862061,738.410461 1058.392334,722.912109 1055.691650,707.280823 
	C1052.489136,688.744019 1051.659668,670.005798 1054.018555,651.299316 
	C1055.108032,642.659485 1056.489136,633.891479 1059.233765,625.681580 
	C1061.159302,619.921814 1065.613892,615.007507 1068.978271,609.371216 
	C1079.482788,615.726318 1090.272827,621.976318 1100.331177,629.239563 
	C1112.833862,638.267944 1117.944702,652.296448 1122.785767,666.165344 
	C1136.735962,706.129639 1146.771851,747.058716 1151.799561,789.116455 
	C1154.110840,808.449707 1154.999023,827.865784 1150.839966,847.907715 
	C1147.618774,860.314209 1141.490479,869.725464 1130.212036,874.783203 
	C1119.015869,879.804016 1107.587158,884.305786 1096.193848,888.603394 
	C1096.131836,887.340759 1096.086670,886.506226 1096.148193,885.679565 
	C1097.721191,864.525085 1099.348755,843.374451 1100.874878,822.216614 
	C1102.270142,802.871460 1103.398560,783.505249 1105.001343,764.177979 
	C1105.419800,759.133118 1102.879883,758.394897 1099.043823,757.967712 
	C1087.685425,756.702576 1076.341187,755.310303 1064.991455,753.967712 
z"/>
<path fill="#2A3054" opacity="1.000000" stroke="none" 
	d="
M1096.260498,889.035278 
	C1107.587158,884.305786 1119.015869,879.804016 1130.212036,874.783203 
	C1141.490479,869.725464 1147.618774,860.314209 1150.833862,848.326050 
	C1172.340210,854.982422 1193.243042,863.044617 1212.363159,875.011719 
	C1217.804565,878.417542 1222.931396,882.549561 1227.478516,887.075806 
	C1230.145020,889.729980 1231.383179,893.818848 1233.260254,897.657227 
	C1222.512573,898.035278 1211.701904,897.264160 1201.041626,898.202026 
	C1189.063721,899.255737 1177.080566,901.238342 1165.355591,903.931335 
	C1150.210815,907.409729 1135.273071,911.832214 1120.340576,916.172668 
	C1113.660645,918.114258 1107.226685,920.892700 1100.646240,923.191406 
	C1098.472778,923.950684 1096.189697,924.396790 1093.499268,924.556152 
	C1094.114746,912.429138 1095.187622,900.732239 1096.260498,889.035278 
z"/>
<path fill="#CED2D3" opacity="1.000000" stroke="none" 
	d="
M1096.193848,888.603455 
	C1095.187622,900.732239 1094.114746,912.429138 1093.106934,924.550781 
	C1093.130981,925.726990 1093.089966,926.478577 1092.542114,927.603149 
	C1003.015869,927.989807 913.996521,928.003540 824.977112,928.017273 
	C824.977112,928.017273 824.712891,927.969238 824.583984,928.008179 
	C823.713989,917.735291 822.972900,907.423462 822.090210,896.766663 
	C821.099304,882.157288 820.298157,867.889771 819.384949,853.629456 
	C818.694519,842.847229 817.851562,832.074951 817.093140,821.297058 
	C815.763184,802.397461 814.437683,783.497620 813.138428,764.595947 
	C813.026428,762.966003 813.123657,761.321594 813.123657,758.678345 
	C827.351929,757.288635 841.340515,755.922424 855.659302,754.326355 
	C885.590088,753.053528 915.184448,751.449463 944.792847,751.125610 
	C974.254272,750.803406 1003.732300,751.642944 1033.197754,752.234192 
	C1043.498535,752.440857 1053.783813,753.424561 1064.533691,754.010620 
	C1076.341187,755.310303 1087.685425,756.702576 1099.043823,757.967712 
	C1102.879883,758.394897 1105.419800,759.133118 1105.001343,764.177979 
	C1103.398560,783.505249 1102.270142,802.871460 1100.874878,822.216614 
	C1099.348755,843.374451 1097.721191,864.525085 1096.148193,885.679565 
	C1096.086670,886.506226 1096.131836,887.340759 1096.193848,888.603455 
M950.980774,855.871338 
	C954.029236,856.515930 957.154053,857.943909 960.111572,857.655640 
	C968.394043,856.848145 975.461792,850.237366 976.876526,842.847717 
	C978.128235,836.310364 974.511902,827.387268 966.724304,823.017395 
	C956.131836,817.073303 940.857178,826.992798 940.834106,837.984802 
	C940.817383,845.936340 944.663635,851.039185 950.980774,855.871338 
z"/>
<path fill="#8A3EFF" opacity="1.000000" stroke="none" 
	d="
M963.943665,1067.587891 
	C950.769714,1077.028076 935.563538,1080.656860 920.293945,1084.049438 
	C907.421021,1086.909668 894.413757,1088.007690 880.897522,1086.673096 
	C884.843262,1068.400269 880.045105,1051.532227 874.342346,1034.819458 
	C873.239380,1031.587280 874.788025,1029.991089 877.230774,1028.953125 
	C886.078186,1025.194458 894.790344,1020.946838 903.929810,1018.085510 
	C918.210876,1013.614441 932.855896,1010.489746 948.461426,1011.132629 
	C949.791687,1028.211060 954.464294,1044.265625 960.901489,1059.885254 
	C961.908813,1062.329712 962.919800,1064.772583 963.943665,1067.587891 
z"/>
<path fill="#2A3054" opacity="1.000000" stroke="none" 
	d="
M1050.955200,942.267578 
	C1050.195312,943.053162 1049.574951,944.106934 1048.655151,944.584900 
	C1027.249146,955.708740 1005.632874,966.443909 984.456360,977.986572 
	C974.502075,983.412415 965.382629,990.369995 956.666748,996.117859 
	C955.238770,994.107849 954.340149,991.476807 952.554993,990.545776 
	C937.885315,982.895020 923.063416,975.534851 908.262878,968.136414 
	C892.828796,960.421326 877.361450,952.772949 861.933777,945.045227 
	C861.143188,944.649292 860.589233,943.780945 860.298279,942.752991 
	C870.823975,942.280457 880.976501,942.112915 891.129150,942.106995 
	C941.244629,942.078003 991.360107,942.088623 1041.475586,942.098083 
	C1044.635498,942.098694 1047.795288,942.208557 1050.955200,942.267578 
z"/>
<path fill="#A1A8AC" opacity="1.000000" stroke="none" 
	d="
M1051.419922,942.178467 
	C1047.795288,942.208557 1044.635498,942.098694 1041.475586,942.098083 
	C991.360107,942.088623 941.244629,942.078003 891.129150,942.106995 
	C880.976501,942.112915 870.823975,942.280457 860.221313,942.363220 
	C849.672607,942.259827 839.567749,941.921204 829.478333,942.181824 
	C824.755554,942.303833 823.702332,940.370667 824.243591,936.296875 
	C824.569580,933.842834 824.645935,931.355652 824.905762,928.450317 
	C913.996521,928.003540 1003.015869,927.989807 1092.501343,927.979004 
	C1092.967407,932.437622 1092.967407,936.893250 1092.967407,942.089417 
	C1079.072754,942.089417 1065.478760,942.089417 1051.419922,942.178467 
z"/>
<path fill="#E3E4E9" opacity="1.000000" stroke="none" 
	d="
M1348.000000,599.197754 
	C1369.308960,599.194519 1390.117798,599.188965 1410.926758,599.192078 
	C1412.423584,599.192322 1414.330322,598.691345 1415.328003,599.414551 
	C1417.140259,600.728210 1419.595215,602.800232 1419.576660,604.532104 
	C1419.558105,606.267029 1417.062256,608.284119 1415.226562,609.569519 
	C1414.207642,610.283020 1412.318359,609.780640 1410.821411,609.780762 
	C1361.213013,609.784546 1311.604492,609.784546 1261.996094,609.773804 
	C1260.336792,609.773438 1258.310547,610.227295 1257.106323,609.454651 
	C1255.402344,608.361328 1253.138306,606.239075 1253.247437,604.708740 
	C1253.380249,602.845642 1255.454224,600.751343 1257.217651,599.506958 
	C1258.352661,598.705933 1260.439819,599.205322 1262.100220,599.204712 
	C1290.566772,599.194641 1319.033447,599.197510 1348.000000,599.197754 
z"/>
<path fill="#E3E4E9" opacity="1.000000" stroke="none" 
	d="
M1317.000000,506.891357 
	C1334.332275,506.891113 1351.164429,506.914337 1367.996704,506.872284 
	C1371.591309,506.863312 1374.998535,507.133026 1375.065918,511.798523 
	C1375.133179,516.457581 1371.710083,516.940063 1368.138062,516.940613 
	C1323.140991,516.947083 1278.144043,516.932922 1233.146973,516.973328 
	C1229.327515,516.976807 1226.210205,515.871277 1226.255371,511.646515 
	C1226.298950,507.582703 1229.425903,506.851318 1233.005615,506.859833 
	C1260.836914,506.925995 1288.668457,506.893463 1317.000000,506.891357 
z"/>
<path fill="#E3E4E9" opacity="1.000000" stroke="none" 
	d="
M1343.000000,563.103394 
	C1315.353394,563.103455 1288.206909,563.106018 1261.060303,563.095947 
	C1259.565063,563.095398 1257.764160,563.490540 1256.649170,562.810364 
	C1255.143188,561.891541 1253.227783,560.125305 1253.202271,558.692200 
	C1253.171997,556.994202 1254.602051,554.752380 1256.078979,553.701904 
	C1257.358521,552.791931 1259.587280,553.074158 1261.396729,553.073059 
	C1303.698730,553.047058 1346.000732,553.054260 1388.302734,553.055603 
	C1388.968872,553.055603 1389.637329,553.093811 1390.300903,553.053162 
	C1393.872681,552.834534 1396.426514,554.453003 1396.480957,557.997620 
	C1396.535400,561.535522 1394.066772,563.149109 1390.464966,563.114319 
	C1382.804688,563.040344 1375.143188,563.100708 1367.482178,563.102783 
	C1359.488159,563.104919 1351.494019,563.103333 1343.000000,563.103394 
z"/>
<path fill="#E3E4E9" opacity="1.000000" stroke="none" 
	d="
M1325.000000,655.932190 
	C1303.365601,655.932190 1282.231079,655.941406 1261.096680,655.914612 
	C1259.450073,655.912537 1257.378784,656.224060 1256.261841,655.383789 
	C1254.772461,654.263306 1253.100952,652.087769 1253.219849,650.493103 
	C1253.338013,648.908691 1255.411255,647.266113 1256.957642,646.079895 
	C1257.706787,645.505066 1259.212402,645.885437 1260.375488,645.885254 
	C1295.987793,645.879944 1331.600220,645.880981 1367.212524,645.881165 
	C1367.545410,645.881165 1367.878540,645.893311 1368.210938,645.880981 
	C1371.874756,645.745178 1375.166382,646.362000 1375.059204,650.990723 
	C1374.952026,655.618408 1371.468506,655.933594 1367.935303,655.931335 
	C1360.280273,655.926453 1352.625366,655.931641 1344.970337,655.932190 
	C1338.480225,655.932617 1331.990112,655.932251 1325.000000,655.932190 
z"/>
<path fill="#E3E4E9" opacity="1.000000" stroke="none" 
	d="
M1299.000000,540.025146 
	C1285.847290,540.022949 1273.194458,540.044250 1260.541992,539.989441 
	C1258.912109,539.982422 1256.963257,540.055725 1255.742432,539.231995 
	C1254.452271,538.361511 1253.158447,536.464783 1253.153320,535.011780 
	C1253.148193,533.553772 1254.517944,531.874634 1255.698242,530.711792 
	C1256.380005,530.040161 1257.878052,530.010498 1259.009155,530.009033 
	C1286.145752,529.973694 1313.282471,529.970337 1340.419067,530.015503 
	C1341.698730,530.017639 1343.487915,530.095459 1344.144409,530.883728 
	C1345.298096,532.269348 1346.850830,535.029419 1346.292236,535.794739 
	C1344.943848,537.642090 1342.501831,539.794617 1340.450195,539.847168 
	C1326.807617,540.196838 1313.151611,540.026428 1299.000000,540.025146 
z"/>
<path fill="#E3E4E9" opacity="1.000000" stroke="none" 
	d="
M1360.923828,586.711426 
	C1340.462891,586.711365 1320.490845,586.726257 1300.518677,586.690735 
	C1298.368652,586.686890 1295.948364,586.949829 1294.143188,586.076599 
	C1292.221313,585.146912 1289.331055,582.603577 1289.624146,581.493835 
	C1290.166626,579.439575 1292.614380,577.786804 1294.497925,576.247192 
	C1295.105713,575.750366 1296.432617,576.116333 1297.430542,576.116272 
	C1320.731323,576.113708 1344.032227,576.113464 1367.333008,576.120667 
	C1368.496094,576.121033 1370.006958,575.745239 1370.751465,576.323303 
	C1372.404907,577.607056 1374.719482,579.330200 1374.806641,580.977722 
	C1374.893677,582.623596 1372.902100,585.398315 1371.275635,585.896790 
	C1368.194214,586.841309 1364.722168,586.511841 1360.923828,586.711426 
z"/>
<path fill="#E3E4E9" opacity="1.000000" stroke="none" 
	d="
M1233.401245,632.859070 
	C1229.351318,633.003723 1226.376953,631.783508 1226.254761,627.853760 
	C1226.119263,623.501709 1229.556885,622.349670 1233.120483,622.337036 
	C1254.777954,622.260498 1276.436035,622.259033 1298.093262,622.355652 
	C1301.694824,622.371765 1305.040527,623.720398 1304.725586,628.070923 
	C1304.442505,631.983459 1301.388184,632.901550 1297.825439,632.892151 
	C1276.500977,632.835938 1255.176147,632.861511 1233.401245,632.859070 
z"/>
<path fill="#FAF9FF" opacity="1.000000" stroke="none" 
	d="
M543.933044,701.343811 
	C526.164856,702.207764 509.291321,689.570862 504.313538,671.672119 
	C499.307037,653.670105 507.576233,634.021667 524.034973,625.254089 
	C533.263428,620.337952 542.951538,618.399536 553.597534,622.325073 
	C548.745911,648.730408 544.218018,674.765625 543.933044,701.343811 
z"/>
<path fill="#E9E8F6" opacity="1.000000" stroke="none" 
	d="
M544.321289,701.471436 
	C544.218018,674.765625 548.745911,648.730408 553.996094,622.375793 
	C568.943298,624.387512 582.539551,639.984009 584.023682,656.398499 
	C586.220520,680.697205 569.998779,699.347839 544.321289,701.471436 
z"/>
<path fill="#F87D72" opacity="1.000000" stroke="none" 
	d="
M1025.566650,484.759521 
	C1016.501282,481.112244 1011.050049,473.434052 1006.173950,465.245422 
	C1004.237610,461.993622 1003.411682,457.154663 1000.642639,455.601959 
	C998.190613,454.227020 993.723206,456.304718 990.182678,457.037750 
	C976.726440,459.823853 963.852234,456.687073 950.913025,453.535583 
	C945.634888,452.250000 940.182251,451.448547 934.762207,451.024658 
	C921.788574,450.009979 912.744751,455.401062 907.010132,467.431732 
	C904.302124,473.112732 899.499573,477.795319 895.303467,482.965057 
	C900.494202,473.697510 905.379395,464.143890 907.512695,453.369293 
	C907.773499,452.052094 909.509216,450.825989 910.822815,449.949432 
	C923.044922,441.793884 936.387695,440.286896 950.452271,443.589355 
	C955.623840,444.803680 960.766846,446.152893 965.887634,447.568207 
	C978.172974,450.963654 990.538025,453.020416 1003.646851,449.888397 
	C1008.393005,463.087891 1014.940125,475.053223 1025.566650,484.759521 
z"/>
<path fill="#F87D72" opacity="1.000000" stroke="none" 
	d="
M894.700317,483.095215 
	C894.145996,484.206543 893.298767,485.457245 892.118774,486.792297 
	C892.659851,485.662659 893.533630,484.448639 894.700317,483.095215 
z"/>
<path fill="#F87D72" opacity="1.000000" stroke="none" 
	d="
M891.607544,486.883362 
	C891.688049,487.110565 891.505615,487.421844 891.054688,487.810974 
	C890.972290,487.581726 891.158508,487.274567 891.607544,486.883362 
z"/>
<path fill="#F87D72" opacity="1.000000" stroke="none" 
	d="
M978.465698,549.672485 
	C966.509949,554.908752 955.096924,555.703186 944.138367,548.055237 
	C943.601807,547.680725 943.086060,547.253357 942.648438,546.771057 
	C942.468201,546.572388 942.520264,546.162964 942.301575,544.884216 
	C955.515076,549.071472 968.532104,549.575867 981.520447,544.857849 
	C981.678894,545.259399 981.837341,545.660950 981.995789,546.062439 
	C980.925354,547.201599 979.854919,548.340759 978.465698,549.672485 
z"/>
<path fill="#2A3054" opacity="1.000000" stroke="none" 
	d="
M978.875610,500.900208 
	C978.894287,498.097504 978.582764,495.528687 979.286072,493.276794 
	C979.718628,491.891815 981.733765,490.080109 982.980713,490.123413 
	C984.285706,490.168732 986.147400,491.990448 986.639282,493.422638 
	C987.354614,495.505341 987.589111,498.073273 987.037537,500.174072 
	C986.560059,501.992828 984.702332,503.449249 983.454834,505.065857 
	C981.961121,503.799896 980.467346,502.533875 978.875610,500.900208 
z"/>
<path fill="#2A3054" opacity="1.000000" stroke="none" 
	d="
M938.129028,494.894562 
	C938.276917,496.248383 938.749878,497.449554 938.354309,498.181396 
	C937.053223,500.588745 935.580261,504.635010 933.913696,504.766724 
	C929.972900,505.078064 929.745972,500.968018 929.268005,497.881104 
	C929.145081,497.087646 929.101257,496.058807 929.498474,495.449219 
	C930.764893,493.505920 932.255981,491.708984 933.660339,489.855560 
	C935.125671,491.412689 936.591003,492.969818 938.129028,494.894562 
z"/>
<path fill="#F87D72" opacity="1.000000" stroke="none" 
	d="
M986.884399,468.215912 
	C983.498718,468.735901 980.514526,469.299988 976.687927,470.023285 
	C978.131470,464.872437 981.666931,463.486237 985.306885,463.157135 
	C989.584167,462.770355 993.048767,464.698914 995.916260,469.957123 
	C992.168396,469.220123 989.727051,468.740051 986.884399,468.215912 
z"/>
<path fill="#F87D72" opacity="1.000000" stroke="none" 
	d="
M933.182617,463.613861 
	C935.436096,465.280365 937.339905,466.787476 939.243713,468.294617 
	C938.991943,468.659546 938.740112,469.024475 938.488281,469.389404 
	C933.193787,469.389404 927.899292,469.389404 922.126587,469.389404 
	C924.478699,464.875061 927.719910,462.576324 933.182617,463.613861 
z"/>
<path fill="#F87D72" opacity="1.000000" stroke="none" 
	d="
M963.647400,533.022766 
	C968.435974,531.933716 968.503601,528.598755 967.822693,524.921082 
	C967.254272,521.850708 966.583374,518.799316 965.957825,515.739502 
	C966.746765,515.598083 967.535645,515.456726 968.324524,515.315308 
	C969.203003,520.269348 970.789429,525.230713 970.738647,530.175293 
	C970.697144,534.222351 967.108521,534.613464 963.647400,533.022766 
z"/>
<path fill="#E3E4E9" opacity="1.000000" stroke="none" 
	d="
M725.304260,411.320007 
	C732.435669,418.308472 739.262146,425.111511 745.968140,432.031311 
	C749.027771,435.188446 748.953003,438.365112 745.719055,441.602783 
	C739.723877,447.604828 733.888489,453.766510 727.990173,459.865112 
	C725.743408,462.188171 723.135742,463.104462 720.530518,460.786957 
	C717.875061,458.424713 718.468506,455.381500 720.699341,453.273651 
	C726.131897,448.140503 731.885925,443.347595 738.052979,437.942108 
	C732.540833,432.215668 728.561707,428.082306 724.583252,423.948303 
	C723.314453,422.629852 721.618347,421.509003 720.888977,419.939362 
	C719.990112,418.005035 719.094543,415.410217 719.723938,413.645111 
	C720.180176,412.365662 723.118591,411.971313 725.304260,411.320007 
z"/>
<path fill="#E3E4E9" opacity="1.000000" stroke="none" 
	d="
M665.760498,448.257751 
	C667.732056,450.311249 670.097046,451.848572 670.977112,453.994781 
	C671.759949,455.903748 671.719421,459.280518 670.511414,460.532654 
	C669.468811,461.613342 665.382385,461.542755 664.174133,460.383667 
	C657.232117,453.723938 650.575684,446.736664 644.275635,439.467560 
	C643.231873,438.263214 643.547546,434.362305 644.727478,433.004578 
	C650.711182,426.119141 657.186890,419.661194 663.490906,413.054169 
	C665.790161,410.644379 668.454834,409.975098 670.862183,412.516510 
	C673.171509,414.954437 672.585571,417.704742 670.342468,420.052368 
	C666.099121,424.493317 661.806946,428.887573 657.565796,433.330597 
	C656.670166,434.268890 655.906738,435.333405 654.778503,436.710724 
	C658.451782,440.577850 661.979858,444.292145 665.760498,448.257751 
z"/>
<path fill="#E3E4E9" opacity="1.000000" stroke="none" 
	d="
M707.291809,412.978546 
	C707.389526,415.539185 707.745117,417.959442 707.012878,419.986847 
	C702.450745,432.618713 697.627869,445.156189 692.931946,457.740112 
	C691.711182,461.011292 689.517151,462.930450 686.079468,461.680969 
	C682.444031,460.359711 682.586670,457.350525 683.772156,454.202118 
	C688.564026,441.475677 693.233276,428.702332 698.122620,416.013641 
	C700.217102,410.578064 702.349609,409.930328 707.291809,412.978546 
z"/>
<path fill="#CED2D3" opacity="1.000000" stroke="none" 
	d="
M1280.000000,469.794189 
	C1263.022095,469.796295 1246.543945,469.854431 1230.066772,469.743011 
	C1227.463501,469.725433 1224.545288,469.528198 1222.361938,468.335449 
	C1220.468018,467.300903 1218.202148,464.674042 1218.297363,462.866577 
	C1218.407715,460.771362 1220.529663,458.186951 1222.493408,456.952911 
	C1224.431152,455.735199 1227.260864,455.584564 1229.701782,455.574646 
	C1252.837036,455.480469 1275.972900,455.475891 1299.108276,455.538910 
	C1306.206787,455.558258 1310.619141,458.322052 1310.786987,462.480591 
	C1310.960815,466.792694 1306.206421,469.756012 1298.975220,469.789032 
	C1292.816895,469.817139 1286.658447,469.794464 1280.000000,469.794189 
z"/>
<path fill="#896BFF" opacity="1.000000" stroke="none" 
	d="
M1401.137207,456.131897 
	C1406.809814,455.428284 1410.261963,457.510101 1410.633423,461.921295 
	C1410.972534,465.946594 1408.857056,468.766968 1404.942261,469.526276 
	C1401.001343,470.290680 1398.060303,468.393158 1396.928589,464.513916 
	C1395.847656,460.808777 1397.486206,458.067017 1401.137207,456.131897 
z"/>
<path fill="#896BFF" opacity="1.000000" stroke="none" 
	d="
M1423.392700,459.832611 
	C1425.366821,456.414337 1428.232788,454.594574 1431.432495,456.066376 
	C1433.647339,457.085175 1436.107178,459.652832 1436.520264,461.886688 
	C1436.888916,463.880249 1435.151245,467.250549 1433.329590,468.383484 
	C1431.522583,469.507141 1427.421265,469.606567 1426.175415,468.338409 
	C1424.336182,466.466339 1424.133789,462.986328 1423.392700,459.832611 
z"/>
<path fill="#E3E4E9" opacity="1.000000" stroke="none" 
	d="
M950.636353,855.715088 
	C944.663635,851.039185 940.817383,845.936340 940.834106,837.984802 
	C940.857178,826.992798 956.131836,817.073303 966.724304,823.017395 
	C974.511902,827.387268 978.128235,836.310364 976.876526,842.847717 
	C975.461792,850.237366 968.394043,856.848145 960.111572,857.655640 
	C957.154053,857.943909 954.029236,856.515930 950.636353,855.715088 
z"/>
</svg>