<svg viewBox="0 0 1000 1000" xmlns="http://www.w3.org/2000/svg"><defs><clipPath id="a"><path fill="currentColor" d="M841.5 635q29.5 135-106 154t-255 78.5Q361 927 231.5 858T75 644.5Q48 500 161.5 418t165-188Q378 124 514 80.5t167 111Q712 346 762 423t79.5 212Z"/></clipPath><pattern id="b" patternUnits="userSpaceOnUse" width="25" height="25" viewBox="0 0 100 100" fill="#a6a6a6"><circle cx="50" cy="50" r="12.5"/></pattern></defs><g clip-path="url(#a)"><path fill="url(#b)" d="M841.5 635q29.5 135-106 154t-255 78.5Q361 927 231.5 858T75 644.5Q48 500 161.5 418t165-188Q378 124 514 80.5t167 111Q712 346 762 423t79.5 212Z"/></g></svg>